<?xml version="1.0" encoding="utf-8"?>
<!-- Generator: Adobe Illustrator 17.0.0, SVG Export Plug-In . SVG Version: 6.00 Build 0)  -->
<!DOCTYPE svg PUBLIC "-//W3C//DTD SVG 1.1//EN" "http://www.w3.org/Graphics/SVG/1.1/DTD/svg11.dtd">
<svg version="1.1" id="Layer_1" xmlns="http://www.w3.org/2000/svg" xmlns:xlink="http://www.w3.org/1999/xlink" x="0px" y="0px"
	 width="2886.424px" height="311.166px" viewBox="0 0 2886.424 311.166" enable-background="new 0 0 2886.424 311.166"
	 xml:space="preserve">
<path fill="#1A237E" d="M2862.488,160.686c-5.668-5.638-11.368-11.245-18.047-17.864c13.359-9.131,18.016-22.919,19.61-36.156
	c2.697-22.215,0.307-44.215-10.908-64.989c-6.741-12.532-15.045-22.46-27.209-29.415c-12.195-6.955-25.003-11.858-39.435-11.827
	c-51.998,0.092-104.026,0.031-156.055,0.031h-10.632v306.441c59.076,0,117.171,0.122,175.267-0.123
	c8.273-0.031,16.178-4.473,24.728-2.911c15.627-7.292,31.713-13.053,43.694-27.117c12.685-14.861,19.334-32.081,22.031-50.067
	C2889.329,201.622,2880.903,179.009,2862.488,160.686z M2681.093,61.133c25.646,0,90.115-0.031,92.015-0.031
	c4.382,0,8.518,0.919,12.287,2.605c0.49,0.184,0.98,0.429,1.44,0.674c3.218,1.624,6.098,3.83,8.549,6.435
	c4.596,4.964,7.568,11.46,8.028,18.66c0.031,0.644,0.061,1.318,0.061,1.992c0,7.936-3.064,15.167-8.028,20.591
	c0,0.031,0,0.031-0.031,0.031c-0.031,0.031-0.031,0.031-0.031,0.031c-5.577,5.975-13.482,9.713-22.276,9.713h-92.015V61.133z
	 M2815.576,244.091c-0.49,0.552-0.98,1.042-1.501,1.532c-0.766,0.766-1.563,1.471-2.421,2.114c-1.195,0.98-2.451,1.869-3.8,2.666
	c-1.134,0.674-2.298,1.287-3.493,1.808c-0.49,0.245-0.98,0.46-1.471,0.644c-0.551,0.215-1.072,0.429-1.624,0.613
	c-3.523,1.226-7.292,1.869-11.214,1.869h-108.99v-69.31h108.99c17.741,0,32.326,13.298,34.379,30.457
	c0.184,1.379,0.276,2.788,0.276,4.198C2824.707,229.72,2821.245,237.932,2815.576,244.091z M2475.614,205.146
	c0,8.549-2.451,15.964-6.097,23.532c-7.17,14.769-11.705,22.705-18.752,30.457c-12.717,15.198-29.661,27.608-49.394,35.973
	c-7.292,3.095-14.953,5.607-22.919,7.538c-11.521,2.758-23.655,4.29-36.218,4.29c-0.306,0-0.613-0.03-0.919-0.03
	c-1.593,0-3.217-0.031-4.811-0.092c-64.193-2.329-116.589-43.388-126.088-96.581c-0.153-0.858-0.306-1.685-0.429-2.543
	c-0.061-0.521-0.153-1.073-0.245-1.624c-0.153-1.195-0.275-2.421-0.398-3.646c-0.123-1.103-0.245-2.206-0.307-3.309
	c-0.092-1.624-0.062-198.646-0.062-198.646h64.377c0,0-0.031,4.902-0.031,7.323c0,29.139,0.031,58.279,0.061,87.419
	c0,28.925-0.031,57.82-0.184,86.775v0.766c0.184,26.045,19.733,48.168,46.942,56.41c7.385,2.237,15.29,3.462,23.532,3.462
	c8.304,0,16.27-1.226,23.686-3.493c16.393-4.995,29.967-15.014,38.209-27.914c5.485-8.579,8.579-18.385,8.579-28.833
	c0-0.889-0.031-1.777-0.061-2.635c0.153-2.206,0.276-4.412,0.276-6.649c-0.122-25.8-0.153-50.986-0.153-76.204
	c-0.031-31.652,0.031-63.366,0.031-96.427h61.282C2475.522,0.464,2475.583,201.193,2475.614,205.146z M2003.941,120.206
	c0-38.636,0-80.472,0-120.009c20.264,0,40.02,0,60.408,0c0,102.68,0,203.842,0,307.025c-19.884,0-39.64,0-60.023,0
	c0-41.053,0-86.798,0-128.026h-144.313c0,40.676,0,85.894,0,127.748c-20.619,0-40.736,0-61.22,0c0-102.586,0-203.387,0-306.481
	c19.965,0,40.082,0,60.72,0c0,39.313,0,81.106,0,119.742H2003.941z M1590.093,133.457c-6.851,8.236-12.144,14.468-17.289,20.821
	c-5.306,6.552-69.88,78.283-72.754,82.513l-90.005-103.333c0,0,0,115.552,0,173.478c-20.12,0-40.244,0-60.826,0
	c0-102.337,0-202.888,0-306.058c6.058,0,13.355,0,20.996,0l128.093,152.728L1629.802,0.464c7.434,0,13.923,0,20.995,0
	c0,102.846,0,203.352,0,306.471c-20.119,0-39.879,0-60.705,0C1590.093,247.841,1590.093,194.792,1590.093,133.457z
	 M1206.911,251.926v55.009H986.608V0.464h58.402l-0.413,251.462H1206.911z M836.64,0.464v306.471h-58.402V0.464H836.64z
	 M493.386,58.866v64.254h116.252v58.402H493.386v125.414h-58.402V0.464h214.518v58.402H493.386z M233.918,241.657
	c-2.831-2.83-2.831-7.403,0-10.202c2.83-2.83,7.372-2.83,10.202,0c2.831,2.799,2.831,7.372,0,10.202
	C241.29,244.487,236.749,244.487,233.918,241.657z M43.813,148.75c-3.981,0-7.216,3.235-7.216,7.216
	c0,3.981,3.235,7.216,7.216,7.216c3.981,0,7.216-3.235,7.216-7.216C51.029,151.985,47.794,148.75,43.813,148.75z M71.993,231.206
	c-2.831,2.83-2.831,7.403,0,10.202c2.83,2.831,7.372,2.831,10.202,0c2.831-2.799,2.831-7.372,0-10.202
	C79.364,228.407,74.823,228.407,71.993,231.206z M243.872,79.638c2.799-2.83,2.799-7.403,0-10.233
	c-2.831-2.799-7.403-2.799-10.202,0c-2.83,2.83-2.83,7.403,0,10.233C236.469,82.437,241.041,82.437,243.872,79.638z M72.521,69.436
	c-2.83,2.799-2.83,7.372,0,10.202c2.799,2.799,7.372,2.799,10.202,0c2.799-2.83,2.799-7.403,0-10.202
	C79.893,66.605,75.321,66.605,72.521,69.436z M314.05,62.207v186.525c0,34.214-27.993,62.207-62.207,62.207H62.207
	C27.993,310.939,0,282.946,0,248.732V62.207C0,27.993,27.993,0,62.207,0h189.635C286.057,0,314.05,27.993,314.05,62.207z
	 M289.407,155.686c0-9.269-7.527-16.765-16.765-16.765c-8.118,0-14.899,5.817-16.423,13.499h-39.657
	c-0.746-13.717-6.221-26.158-14.837-35.769l28.024-28.024c6.501,4.137,15.179,3.39,20.839-2.271c6.563-6.532,6.563-17.138,0-23.67
	c-6.532-6.563-17.138-6.563-23.67,0c-5.754,5.754-6.438,14.619-2.084,21.15l-27.993,27.993
	c-9.456-8.336-21.617-13.655-34.992-14.463v-39.75c7.496-1.649,13.126-8.336,13.126-16.329c0-9.238-7.496-16.765-16.734-16.765
	c-9.269,0-16.765,7.527-16.765,16.765c0,8.118,5.816,14.899,13.499,16.423v39.657c-13.437,0.716-25.629,5.972-35.147,14.277
	L91.712,83.526c4.137-6.469,3.422-15.179-2.239-20.839c-6.563-6.532-17.169-6.532-23.701,0c-6.532,6.532-6.532,17.138,0,23.67
	c5.754,5.754,14.65,6.438,21.15,2.084l28.024,28.024c-8.74,9.611-14.277,22.084-15.054,35.894h-39.75
	c-1.649-7.527-8.305-13.126-16.329-13.126c-9.238,0-16.734,7.496-16.734,16.734c0,9.238,7.496,16.765,16.734,16.765
	c8.149,0,14.899-5.817,16.423-13.499h39.688c0.809,13.312,6.034,25.412,14.277,34.867l-28.118,28.118
	c-6.469-4.137-15.179-3.421-20.84,2.239c-6.532,6.563-6.532,17.169,0,23.701c6.563,6.532,17.138,6.532,23.701,0
	c5.754-5.754,6.438-14.65,2.053-21.151l28.024-27.993c9.549,8.616,21.928,14.152,35.614,14.992v39.751
	c-7.527,1.648-13.157,8.336-13.157,16.329c0,9.269,7.496,16.765,16.765,16.765c9.238,0,16.734-7.496,16.734-16.765
	c0-8.118-5.785-14.899-13.468-16.423v-39.657c13.53-0.746,25.816-6.065,35.365-14.494l28.024,28.055
	c-4.137,6.47-3.39,15.179,2.271,20.84c6.532,6.532,17.138,6.532,23.701,0c6.532-6.563,6.532-17.169,0-23.701
	c-5.754-5.754-14.65-6.438-21.151-2.084l-27.962-27.962c8.522-9.487,13.966-21.804,14.774-35.365h39.782
	c1.648,7.496,8.336,13.126,16.329,13.126C281.88,172.42,289.407,164.924,289.407,155.686z M165.459,41.287
	c0-3.981-3.235-7.216-7.216-7.216c-3.981,0-7.216,3.235-7.216,7.216c0,3.981,3.235,7.216,7.216,7.216
	C162.225,48.503,165.459,45.268,165.459,41.287z M272.643,148.47c-3.981,0-7.216,3.235-7.216,7.216c0,3.981,3.235,7.216,7.216,7.216
	c3.981,0,7.216-3.235,7.216-7.216C279.858,151.705,276.624,148.47,272.643,148.47z M158.243,107.227
	c-26.78,0-48.46,21.71-48.46,48.46c0,26.749,21.679,48.428,48.46,48.428c26.749,0,48.428-21.679,48.428-48.428
	C206.672,128.937,184.992,107.227,158.243,107.227z M151.027,270.086c0,3.981,3.235,7.216,7.216,7.216
	c3.981,0,7.216-3.235,7.216-7.216c0-3.981-3.235-7.216-7.216-7.216C154.262,262.869,151.027,266.104,151.027,270.086z"/>
</svg>
